<?xml version="1.0" standalone="no"?>
<!DOCTYPE svg PUBLIC "-//W3C//DTD SVG 20010904//EN"
 "http://www.w3.org/TR/2001/REC-SVG-20010904/DTD/svg10.dtd">
<svg version="1.0" xmlns="http://www.w3.org/2000/svg"
 width="1920.000000pt" height="1080.000000pt" viewBox="0 0 1920.000000 1080.000000"
 preserveAspectRatio="xMidYMid meet">

<g transform="translate(0.000000,1080.000000) scale(0.100000,-0.100000)"
fill="#000000" stroke="none">
<path d="M1140 7335 l0 -235 35 0 35 0 0 200 0 200 155 0 155 0 0 35 0 35
-190 0 -190 0 0 -235z"/>
<path d="M3910 7535 l0 -35 200 0 200 0 0 -200 0 -200 35 0 35 0 0 235 0 235
-235 0 -235 0 0 -35z"/>
<path d="M1532 7154 c-18 -9 -43 -31 -55 -48 l-22 -31 -3 -928 c-3 -1028 -6
-971 62 -1020 30 -21 40 -22 246 -22 206 0 216 1 246 22 67 48 64 -6 64 1008
0 1014 3 960 -64 1008 -29 21 -42 22 -236 25 -174 2 -210 0 -238 -14z"/>
<path d="M2292 7154 c-18 -9 -43 -31 -55 -48 l-22 -31 -3 -928 c-3 -1028 -6
-971 62 -1020 30 -21 40 -22 246 -22 206 0 216 1 246 22 67 48 64 -6 64 1008
0 1014 3 960 -64 1008 -29 21 -42 22 -236 25 -174 2 -210 0 -238 -14z"/>
<path d="M11530 6719 l0 -431 -47 43 c-102 90 -226 118 -377 85 -292 -65 -492
-335 -473 -640 9 -158 68 -288 181 -402 83 -83 176 -134 292 -160 152 -33 272
-6 378 87 l46 41 0 -51 0 -51 125 0 125 0 0 955 0 955 -125 0 -125 0 0 -431z
m-152 -565 c109 -54 171 -164 180 -315 9 -181 -76 -329 -217 -377 -19 -7 -68
-12 -110 -12 -133 0 -232 67 -294 198 -30 63 -32 74 -32 177 0 103 2 113 30
163 40 74 99 130 170 163 51 24 73 29 141 29 66 0 89 -4 132 -26z"/>
<path d="M6790 7016 l0 -123 193 -6 c221 -6 272 -19 350 -88 67 -58 100 -132
105 -235 7 -138 -26 -223 -110 -284 -56 -41 -132 -62 -252 -69 l-99 -6 99
-126 100 -125 76 13 c262 44 410 202 449 478 29 207 -30 405 -156 530 -41 40
-88 74 -136 97 -120 59 -177 68 -412 68 l-207 0 0 -124z"/>
<path d="M8381 6424 c-135 -36 -297 -159 -366 -278 -139 -238 -102 -529 90
-721 243 -243 627 -245 859 -5 36 37 66 72 66 77 0 4 -46 38 -102 75 l-102 67
-32 -48 c-62 -92 -174 -140 -296 -127 -74 9 -115 23 -156 53 -36 27 -107 127
-99 140 3 4 186 82 407 173 l401 165 -5 30 c-3 17 -24 68 -47 114 -68 137
-192 245 -328 285 -68 20 -216 20 -290 0z m259 -229 c33 -17 113 -96 105 -104
-3 -2 -125 -55 -273 -116 -211 -88 -268 -108 -271 -96 -15 63 67 219 144 274
91 64 217 82 295 42z"/>
<path d="M12451 6424 c-135 -36 -297 -159 -366 -278 -139 -238 -102 -529 90
-721 243 -243 627 -245 859 -5 36 37 66 72 66 77 0 4 -46 38 -102 75 l-102 67
-32 -48 c-62 -92 -174 -140 -296 -127 -74 9 -115 23 -156 53 -36 27 -107 127
-99 140 3 4 186 82 407 173 l401 165 -5 30 c-3 17 -24 68 -47 114 -68 137
-192 245 -328 285 -68 20 -216 20 -290 0z m259 -229 c33 -17 113 -96 105 -104
-3 -2 -125 -55 -273 -116 -211 -88 -268 -108 -271 -96 -15 63 67 219 144 274
91 64 217 82 295 42z"/>
<path d="M9701 6410 c-303 -82 -495 -391 -437 -708 44 -244 224 -435 462 -488
151 -33 280 -4 378 86 l46 43 0 -52 0 -51 125 0 125 0 0 570 0 570 -125 0
-125 0 0 -46 0 -47 -46 43 c-102 93 -246 122 -403 80z m315 -265 c95 -59 150
-162 161 -301 13 -166 -63 -311 -195 -371 -48 -22 -64 -25 -141 -21 -71 3 -96
9 -132 30 -63 37 -125 104 -157 168 -24 50 -27 66 -27 165 0 100 3 116 28 170
35 74 110 147 180 174 41 17 71 20 143 18 81 -2 96 -5 140 -32z"/>
<path d="M13894 6365 c-93 -16 -134 -30 -216 -72 l-68 -33 0 55 0 55 -130 0
-130 0 0 -565 0 -565 130 0 130 0 0 294 c0 232 3 302 15 335 48 136 191 233
368 248 l67 6 0 128 0 129 -47 -1 c-27 0 -80 -7 -119 -14z"/>
<path d="M1350 4940 c-11 -11 -20 -29 -20 -40 0 -11 9 -29 20 -40 20 -20 33
-20 1370 -20 1337 0 1350 0 1370 20 11 11 20 29 20 40 0 11 -9 29 -20 40 -20
20 -33 20 -1370 20 -1337 0 -1350 0 -1370 -20z"/>
<path d="M1140 4520 l0 -190 190 0 190 0 0 35 0 35 -155 0 -155 0 0 155 0 155
-35 0 -35 0 0 -190z"/>
<path d="M4310 4555 l0 -155 -200 0 -200 0 0 -35 0 -35 235 0 235 0 0 190 0
190 -35 0 -35 0 0 -155z"/>
</g>
</svg>
